Trimmed_running_0600000001_forces_filt50Hz.mot
version=1
nRows=57
nColumns=19
inDegrees=yes
endheader
time	R_ground_force_vx	R_ground_force_vy	R_ground_force_vz	R_ground_force_px	R_ground_force_py	R_ground_force_pz	R_ground_torque_x	R_ground_torque_y	R_ground_torque_z	L_ground_force_vx	L_ground_force_vy	L_ground_force_vz	L_ground_force_px	L_ground_force_py	L_ground_force_pz	L_ground_torque_x	L_ground_torque_y	L_ground_torque_z	
4.749500	  0.000000	  0.000000	  0.000000	  0.275103	  0.000000	 -0.187137	  0.000000	  0.000000	  0.000000	  0.000000	  0.000000	  0.000000	  1.395236	  0.000000	 -0.378793	  0.000000	  0.000000	  0.000000
4.750000	  0.000000	  0.000000	  0.000000	  0.276173	  0.000000	 -0.187025	  0.000000	  0.000000	  0.000000	  0.000000	  0.000000	  0.000000	  1.394582	  0.000000	 -0.379141	  0.000000	  0.000000	  0.000000
4.750500	  0.000000	  0.000000	  0.000000	  0.277416	  0.000000	 -0.186907	  0.000000	  0.000000	  0.000000	  0.000000	  0.000000	  0.000000	  1.393675	  0.000000	 -0.379462	  0.000000	  0.000000	  0.000000
4.751000	  0.000000	  0.000000	  0.000000	  0.278658	  0.000000	 -0.186789	  0.000000	  0.000000	  0.000000	  0.000000	  0.000000	  0.000000	  1.392767	  0.000000	 -0.379784	  0.000000	  0.000000	  0.000000
4.751500	  0.000000	  0.000000	  0.000000	  0.279901	  0.000000	 -0.186670	  0.000000	  0.000000	  0.000000	  0.000000	  0.000000	  0.000000	  1.391860	  0.000000	 -0.380106	  0.000000	  0.000000	  0.000000
4.752000	  0.000000	  0.000000	  0.000000	  0.281144	  0.000000	 -0.186552	  0.000000	  0.000000	  0.000000	  0.000000	  0.000000	  0.000000	  1.390953	  0.000000	 -0.380428	  0.000000	  0.000000	  0.000000
4.752500	  0.000000	  0.000000	  0.000000	  0.282386	  0.000000	 -0.186434	  0.000000	  0.000000	  0.000000	  0.000000	  0.000000	  0.000000	  1.390045	  0.000000	 -0.380750	  0.000000	  0.000000	  0.000000
4.753000	  0.000000	  0.000000	  0.000000	  0.283629	  0.000000	 -0.186315	  0.000000	  0.000000	  0.000000	  0.000000	  0.000000	  0.000000	  1.389138	  0.000000	 -0.381072	  0.000000	  0.000000	  0.000000
4.753500	  0.000000	  0.000000	  0.000000	  0.284871	  0.000000	 -0.186197	  0.000000	  0.000000	  0.000000	  0.000000	  0.000000	  0.000000	  1.388231	  0.000000	 -0.381394	  0.000000	  0.000000	  0.000000
4.754000	  0.000000	  0.000000	  0.000000	  0.286114	  0.000000	 -0.186079	  0.000000	  0.000000	  0.000000	  0.000000	  0.000000	  0.000000	  1.387323	  0.000000	 -0.381716	  0.000000	  0.000000	  0.000000
4.754500	  0.000000	  0.000000	  0.000000	  0.287357	  0.000000	 -0.185960	  0.000000	  0.000000	  0.000000	  0.000000	  0.000000	  0.000000	  1.386416	  0.000000	 -0.382038	  0.000000	  0.000000	  0.000000
4.755000	  0.000000	  0.000000	  0.000000	  0.288599	  0.000000	 -0.185842	  0.000000	  0.000000	  0.000000	  0.000000	  0.000000	  0.000000	  1.385508	  0.000000	 -0.382359	  0.000000	  0.000000	  0.000000
4.755500	  0.000000	  0.000000	  0.000000	  0.290040	  0.000000	 -0.185767	  0.000000	  0.000000	  0.000000	  0.000000	  0.000000	  0.000000	  1.384371	  0.000000	 -0.382664	  0.000000	  0.000000	  0.000000
4.756000	  0.000000	  0.000000	  0.000000	  0.291481	  0.000000	 -0.185692	  0.000000	  0.000000	  0.000000	  0.000000	  0.000000	  0.000000	  1.383234	  0.000000	 -0.382969	  0.000000	  0.000000	  0.000000
4.756500	  0.000000	  0.000000	  0.000000	  0.292922	  0.000000	 -0.185617	  0.000000	  0.000000	  0.000000	  0.000000	  0.000000	  0.000000	  1.382097	  0.000000	 -0.383273	  0.000000	  0.000000	  0.000000
4.757000	  0.000000	  0.000000	  0.000000	  0.294362	  0.000000	 -0.185542	  0.000000	  0.000000	  0.000000	  0.000000	  0.000000	  0.000000	  1.380960	  0.000000	 -0.383578	  0.000000	  0.000000	  0.000000
4.757500	  0.000000	  0.000000	  0.000000	  0.295803	  0.000000	 -0.185468	  0.000000	  0.000000	  0.000000	  0.000000	  0.000000	  0.000000	  1.379823	  0.000000	 -0.383883	  0.000000	  0.000000	  0.000000
4.758000	  0.000000	  0.000000	  0.000000	  0.297244	  0.000000	 -0.185393	  0.000000	  0.000000	  0.000000	  0.000000	  0.000000	  0.000000	  1.378686	  0.000000	 -0.384187	  0.000000	  0.000000	  0.000000
4.758500	  0.000000	  0.000000	  0.000000	  0.298685	  0.000000	 -0.185318	  0.000000	  0.000000	  0.000000	  0.000000	  0.000000	  0.000000	  1.377549	  0.000000	 -0.384492	  0.000000	  0.000000	  0.000000
4.759000	  0.000000	  0.000000	  0.000000	  0.300126	  0.000000	 -0.185243	  0.000000	  0.000000	  0.000000	  0.000000	  0.000000	  0.000000	  1.376412	  0.000000	 -0.384797	  0.000000	  0.000000	  0.000000
4.759500	  0.000000	  0.000000	  0.000000	  0.301566	  0.000000	 -0.185168	  0.000000	  0.000000	  0.000000	  0.000000	  0.000000	  0.000000	  1.375275	  0.000000	 -0.385101	  0.000000	  0.000000	  0.000000
4.760000	  0.000000	  0.000000	  0.000000	  0.303007	  0.000000	 -0.185093	  0.000000	  0.000000	  0.000000	  0.000000	  0.000000	  0.000000	  1.374138	  0.000000	 -0.385406	  0.000000	  0.000000	  0.000000
4.760500	  0.000000	  0.000000	  0.000000	  0.304577	  0.000000	 -0.185054	  0.000000	  0.000000	  0.000000	  0.000000	  0.000000	  0.000000	  1.372752	  0.000000	 -0.385680	  0.000000	  0.000000	  0.000000
4.761000	  0.000000	  0.000000	  0.000000	  0.306146	  0.000000	 -0.185016	  0.000000	  0.000000	  0.000000	  0.000000	  0.000000	  0.000000	  1.371366	  0.000000	 -0.385954	  0.000000	  0.000000	  0.000000
4.761500	  0.000000	  0.000000	  0.000000	  0.307716	  0.000000	 -0.184977	  0.000000	  0.000000	  0.000000	  0.000000	  0.000000	  0.000000	  1.369981	  0.000000	 -0.386228	  0.000000	  0.000000	  0.000000
4.762000	  0.000000	  0.000000	  0.000000	  0.309285	  0.000000	 -0.184938	  0.000000	  0.000000	  0.000000	  0.000000	  0.000000	  0.000000	  1.368595	  0.000000	 -0.386502	  0.000000	  0.000000	  0.000000
4.762500	  0.000000	  0.000000	  0.000000	  0.310855	  0.000000	 -0.184900	  0.000000	  0.000000	  0.000000	  0.000000	  0.000000	  0.000000	  1.367210	  0.000000	 -0.386776	  0.000000	  0.000000	  0.000000
4.763000	  0.000000	  0.000000	  0.000000	  0.312424	  0.000000	 -0.184861	  0.000000	  0.000000	  0.000000	  0.000000	  0.000000	  0.000000	  1.365824	  0.000000	 -0.387050	  0.000000	  0.000000	  0.000000
4.763500	  0.000000	  0.000000	  0.000000	  0.313994	  0.000000	 -0.184823	  0.000000	  0.000000	  0.000000	  0.000000	  0.000000	  0.000000	  1.364439	  0.000000	 -0.387324	  0.000000	  0.000000	  0.000000
4.764000	  0.000000	  0.000000	  0.000000	  0.315563	  0.000000	 -0.184784	  0.000000	  0.000000	  0.000000	  0.000000	  0.000000	  0.000000	  1.363053	  0.000000	 -0.387597	  0.000000	  0.000000	  0.000000
4.764500	  0.000000	  0.000000	  0.000000	  0.317133	  0.000000	 -0.184745	  0.000000	  0.000000	  0.000000	  0.000000	  0.000000	  0.000000	  1.361668	  0.000000	 -0.387871	  0.000000	  0.000000	  0.000000
4.765000	  0.000000	  0.000000	  0.000000	  0.318702	  0.000000	 -0.184707	  0.000000	  0.000000	  0.000000	  0.000000	  0.000000	  0.000000	  1.360282	  0.000000	 -0.388145	  0.000000	  0.000000	  0.000000
4.765500	  0.000000	  0.000000	  0.000000	  0.320377	  0.000000	 -0.184715	  0.000000	  0.000000	  0.000000	  0.000000	  0.000000	  0.000000	  1.358718	  0.000000	 -0.388338	  0.000000	  0.000000	  0.000000
4.766000	  0.000000	  0.000000	  0.000000	  0.322053	  0.000000	 -0.184723	  0.000000	  0.000000	  0.000000	  0.000000	  0.000000	  0.000000	  1.357153	  0.000000	 -0.388530	  0.000000	  0.000000	  0.000000
4.766500	  0.000000	  0.000000	  0.000000	  0.323728	  0.000000	 -0.184731	  0.000000	  0.000000	  0.000000	  0.000000	  0.000000	  0.000000	  1.355589	  0.000000	 -0.388723	  0.000000	  0.000000	  0.000000
4.767000	  0.000000	  0.000000	  0.000000	  0.325404	  0.000000	 -0.184739	  0.000000	  0.000000	  0.000000	  0.000000	  0.000000	  0.000000	  1.354025	  0.000000	 -0.388915	  0.000000	  0.000000	  0.000000
4.767500	  0.000000	  0.000000	  0.000000	  0.327079	  0.000000	 -0.184747	  0.000000	  0.000000	  0.000000	  0.000000	  0.000000	  0.000000	  1.352460	  0.000000	 -0.389107	  0.000000	  0.000000	  0.000000
4.768000	  0.000000	  0.000000	  0.000000	  0.328754	  0.000000	 -0.184755	  0.000000	  0.000000	  0.000000	  0.000000	  0.000000	  0.000000	  1.350896	  0.000000	 -0.389300	  0.000000	  0.000000	  0.000000
4.768500	  0.000000	  0.000000	  0.000000	  0.330430	  0.000000	 -0.184763	  0.000000	  0.000000	  0.000000	  0.000000	  0.000000	  0.000000	  1.349331	  0.000000	 -0.389492	  0.000000	  0.000000	  0.000000
4.769000	  0.000000	  0.000000	  0.000000	  0.332105	  0.000000	 -0.184771	  0.000000	  0.000000	  0.000000	  0.000000	  0.000000	  0.000000	  1.347767	  0.000000	 -0.389685	  0.000000	  0.000000	  0.000000
4.769500	  0.000000	  0.000000	  0.000000	  0.333780	  0.000000	 -0.184780	  0.000000	  0.000000	  0.000000	  0.000000	  0.000000	  0.000000	  1.346203	  0.000000	 -0.389877	  0.000000	  0.000000	  0.000000
4.770000	  0.000000	  0.000000	  0.000000	  0.335456	  0.000000	 -0.184788	  0.000000	  0.000000	  0.000000	  0.000000	  0.000000	  0.000000	  1.344638	  0.000000	 -0.390069	  0.000000	  0.000000	  0.000000
4.770500	  0.000000	  0.000000	  0.000000	  0.337223	  0.000000	 -0.184844	  0.000000	  0.000000	  0.000000	  0.000000	  0.000000	  0.000000	  1.342883	  0.000000	 -0.390264	  0.000000	  0.000000	  0.000000
4.771000	  0.000000	  0.000000	  0.000000	  0.338990	  0.000000	 -0.184901	  0.000000	  0.000000	  0.000000	  0.000000	  0.000000	  0.000000	  1.341129	  0.000000	 -0.390458	  0.000000	  0.000000	  0.000000
4.771500	  0.000000	  0.000000	  0.000000	  0.340758	  0.000000	 -0.184958	  0.000000	  0.000000	  0.000000	  0.000000	  0.000000	  0.000000	  1.339374	  0.000000	 -0.390652	  0.000000	  0.000000	  0.000000
4.772000	  0.000000	  0.000000	  0.000000	  0.342525	  0.000000	 -0.185015	  0.000000	  0.000000	  0.000000	  0.000000	  0.000000	  0.000000	  1.337619	  0.000000	 -0.390846	  0.000000	  0.000000	  0.000000
4.772500	  0.000000	  0.000000	  0.000000	  0.344292	  0.000000	 -0.185071	  0.000000	  0.000000	  0.000000	  0.000000	  0.000000	  0.000000	  1.335864	  0.000000	 -0.391041	  0.000000	  0.000000	  0.000000
4.773000	  0.000000	  0.000000	  0.000000	  0.346060	  0.000000	 -0.185128	  0.000000	  0.000000	  0.000000	  0.000000	  0.000000	  0.000000	  1.334109	  0.000000	 -0.391235	  0.000000	  0.000000	  0.000000
4.773500	  0.000000	  0.000000	  0.000000	  0.347827	  0.000000	 -0.185185	  0.000000	  0.000000	  0.000000	  0.000000	  0.000000	  0.000000	  1.332354	  0.000000	 -0.391429	  0.000000	  0.000000	  0.000000
4.774000	  0.000000	  0.000000	  0.000000	  0.349594	  0.000000	 -0.185241	  0.000000	  0.000000	  0.000000	  0.000000	  0.000000	  0.000000	  1.330599	  0.000000	 -0.391623	  0.000000	  0.000000	  0.000000
4.774500	  0.000000	  0.000000	  0.000000	  0.351362	  0.000000	 -0.185298	  0.000000	  0.000000	  0.000000	  0.000000	  0.000000	  0.000000	  1.328845	  0.000000	 -0.391817	  0.000000	  0.000000	  0.000000
4.775000	  0.000000	  0.000000	  0.000000	  0.353129	  0.000000	 -0.185355	  0.000000	  0.000000	  0.000000	  0.000000	  0.000000	  0.000000	  1.327090	  0.000000	 -0.392012	  0.000000	  0.000000	  0.000000
4.775500	  0.000000	  0.000000	  0.000000	  0.354971	  0.000000	 -0.185457	  0.000000	  0.000000	  0.000000	  0.000000	  0.000000	  0.000000	  1.325160	  0.000000	 -0.392042	  0.000000	  0.000000	  0.000000
4.776000	  0.000000	  0.000000	  0.000000	  0.356813	  0.000000	 -0.185560	  0.000000	  0.000000	  0.000000	  0.000000	  0.000000	  0.000000	  1.323231	  0.000000	 -0.392073	  0.000000	  0.000000	  0.000000
4.776500	  0.000000	  0.000000	  0.000000	  0.358655	  0.000000	 -0.185663	  0.000000	  0.000000	  0.000000	  0.000000	  0.000000	  0.000000	  1.321301	  0.000000	 -0.392103	  0.000000	  0.000000	  0.000000
4.777000	  0.000000	  0.000000	  0.000000	  0.360497	  0.000000	 -0.185765	  0.000000	  0.000000	  0.000000	  0.000000	  0.000000	  0.000000	  1.319372	  0.000000	 -0.392134	  0.000000	  0.000000	  0.000000
4.777500	  0.000000	  0.000000	  0.000000	  0.362339	  0.000000	 -0.185868	  0.000000	  0.000000	  0.000000	  0.000000	  0.000000	  0.000000	  1.317443	  0.000000	 -0.392164	  0.000000	  0.000000	  0.000000
